<svg xmlns="http://www.w3.org/2000/svg" viewBox="0 0 64 64" id="theme"><path d="M32 .58a31.19 31.19 0 0 0-14 3.27 1 1 0 1 0 .9 1.79A29.14 29.14 0 0 1 32 2.58a29.43 29.43 0 0 1 24.45 45.79 1 1 0 0 0 .27 1.39 1.07 1.07 0 0 0 .56.17 1 1 0 0 0 .83-.44A31.43 31.43 0 0 0 32 .58zm22.17 50.76a28 28 0 0 1-2.83 2.83 1 1 0 0 0-.09 1.41 1 1 0 0 0 .75.34 1 1 0 0 0 .66-.24 31.88 31.88 0 0 0 3-3 1 1 0 0 0-1.51-1.32zm-5.42 4.86A29.43 29.43 0 0 1 9.62 12.89a1 1 0 0 0-1.52-1.3 31.43 31.43 0 0 0 41.79 46.25 1 1 0 0 0 .25-1.39 1 1 0 0 0-1.39-.25zM11.34 10.67a1 1 0 0 0 .66-.27c.41-.38.82-.74 1.25-1.09A1 1 0 1 0 12 7.77c-.46.37-.9.76-1.34 1.16a1 1 0 0 0 .68 1.74zm3.6-2.86a1 1 0 0 0 .56-.17l.25-.17a1 1 0 1 0-1.11-1.67l-.27.2a1 1 0 0 0-.26 1.39 1 1 0 0 0 .83.42z"></path><path d="m51.13 36.8-.68-20.45a3.33 3.33 0 0 0-6.65 0l-.69 20.53c-2.11 3.29-1.28 4.89-.11 6.49a4.89 4.89 0 0 1 .83 1.42c.55 1.81-1.56 4-2.41 4.63a1 1 0 0 0 .49 1.78 11.63 11.63 0 0 0 1.65.11 9 9 0 0 0 7.57-14.51zm-5.34-20.38a1.33 1.33 0 0 1 2.66 0l.66 19.75h-4zm4.42 29.05a6.83 6.83 0 0 1-5.84 3.81c1-1.27 2-3.12 1.4-5.07a6.48 6.48 0 0 0-1.14-2c-.82-1.09-1.31-1.8 0-4h5a6.88 6.88 0 0 1 .58 7.26zM39.44 28.25a10.35 10.35 0 0 0-1.23-10.79 11.4 11.4 0 0 0-10.86-4.65 19.37 19.37 0 0 0 3 38.51 18.88 18.88 0 0 0 3.16-.26 4.32 4.32 0 0 0 3.29-2.51 4.53 4.53 0 0 0-.23-4.22 1.47 1.47 0 0 0-.23-.31c-5.13-4.79-2.79-7.73.17-11.45a24.68 24.68 0 0 0 2.93-4.32zm-4.6 17.13a2.58 2.58 0 0 1 .16 2.34 2.38 2.38 0 0 1-1.8 1.37 17.37 17.37 0 0 1-12.79-31.38 17 17 0 0 1 7.25-2.92 8.75 8.75 0 0 1 1.34-.11 9.52 9.52 0 0 1 7.6 4 8.36 8.36 0 0 1 1 8.73 22.31 22.31 0 0 1-2.72 3.95c-2.97 3.75-6.38 8.02-.04 14.02z"></path><path d="M30.4 17.64a5 5 0 1 0-3.06 8.87h.63a5 5 0 0 0 2.43-8.84zm-.71 5.73a2.94 2.94 0 0 1-2 1.12A3 3 0 0 1 25 19.74a2.87 2.87 0 0 1 2-1.12 2.31 2.31 0 0 1 .37 0 3 3 0 0 1 1.81.62 3 3 0 0 1 1.12 2 2.91 2.91 0 0 1-.61 2.13zm-9.44 9.98a4.53 4.53 0 0 0 .52 0 4.19 4.19 0 1 0-.52 0zM20 27h.27a2.17 2.17 0 0 1 .27 4.33 2.17 2.17 0 0 1-2.42-1.88A2.17 2.17 0 0 1 20 27zm4.7 11.14a3.76 3.76 0 1 0-3.7 4.23h.48a3.77 3.77 0 0 0 3.22-4.23zm-3.51 2.21a1.76 1.76 0 1 1-.44-3.49h.22a1.76 1.76 0 0 1 .22 3.51zm6.43.29a3.5 3.5 0 0 0-3 3.9A3.48 3.48 0 0 0 28 47.6h.45a3.5 3.5 0 0 0-.87-6.94zm.62 5a1.49 1.49 0 1 1-.37-3h.19a1.47 1.47 0 0 1 .91.31 1.5 1.5 0 0 1-.73 2.66z"></path></svg>